Coordinates
version=1
nRows=14
nColumns=24
inDegrees=yes

Units are S.I. units (second, meters, Newtons, ...)
Angles are in degrees.

endheader
time	pelvis_tilt	pelvis_list	pelvis_rotation	pelvis_tx	pelvis_ty	pelvis_tz	hip_flexion_r	hip_adduction_r	hip_rotation_r	knee_angle_r	ankle_angle_r	subtalar_angle_r	mtp_angle_r	hip_flexion_l	hip_adduction_l	hip_rotation_l	knee_angle_l	ankle_angle_l	subtalar_angle_l	mtp_angle_l	lumbar_extension	lumbar_bending	lumbar_rotation
      2.77500000	    -11.48039151	      7.89296732	     -2.96723481	     -2.32942005	     -0.03384373	     -0.27235031	     15.53423761	    -16.05424628	     -8.04395189	    -58.98624758	    -27.24859930	    -15.66302727	     10.84962972	     30.03689132	      7.75261330	     -8.52202330	    -23.66602176	     -1.01172638	    -15.69861237	    -10.15542665	      6.98348161	     -8.33454945	      3.67824014
      2.78000000	    -11.46148692	      7.73433901	     -2.79409035	     -2.32257618	     -0.03268713	     -0.27341147	     16.48662566	    -15.85266197	     -7.97329257	    -59.91263085	    -26.13653868	    -16.18792335	     11.16680442	     29.43317566	      7.77739278	     -8.37230214	    -23.47364388	     -0.56846964	    -15.42221397	     -9.88380518	      6.88205484	     -8.18675918	      3.42193627
      2.78500000	    -11.42144876	      7.58080308	     -2.64004862	     -2.31566144	     -0.03145611	     -0.27443960	     17.39639506	    -15.65555472	     -7.92433174	    -60.71313830	    -25.09542754	    -16.66255435	     11.43048601	     28.76977281	      7.81345276	     -8.14744410	    -23.22008258	     -0.16112452	    -15.20723524	     -9.68227791	      6.78069278	     -8.04017068	      3.18152430
      2.79000000	    -11.39813742	      7.36132574	     -2.50686219	     -2.30890878	     -0.03022015	     -0.27541214	     18.31971508	    -15.36394939	     -7.85272985	    -61.42061259	    -24.00940754	    -16.90850840	     11.75285828	     28.15760068	      7.75825547	     -7.96768666	    -23.00940978	      0.19808258	    -15.00748873	     -9.46779545	      6.67067456	     -7.81969666	      2.93568058
      2.79500000	    -11.35487799	      7.15366015	     -2.39296520	     -2.30204407	     -0.02894144	     -0.27638340	     19.19680359	    -15.08977663	     -7.80723015	    -62.00439909	    -23.03636444	    -17.12114389	     12.04158087	     27.48465705	      7.72643879	     -7.71542299	    -22.73446692	      0.53280178	    -14.90585771	     -9.30368150	      6.56952170	     -7.60170486	      2.72642524
      2.80000000	    -11.30237431	      6.93221984	     -2.28233391	     -2.29522484	     -0.02764950	     -0.27733873	     20.04495294	    -14.79693368	     -7.77735102	    -62.48695107	    -22.09783226	    -17.23052054	     12.33531582	     26.80331103	      7.68099622	     -7.44612887	    -22.45295123	      0.82329886	    -14.85379335	     -9.18164938	      6.45306392	     -7.36856662	      2.51637673
      2.80500000	    -11.24166610	      6.71425959	     -2.16096509	     -2.28845200	     -0.02636055	     -0.27827349	     20.86252133	    -14.50931621	     -7.77087942	    -62.87763957	    -21.16303769	    -17.23027856	     12.67086866	     26.11848731	      7.64143075	     -7.16663381	    -22.16815341	      1.05554076	    -14.83976600	     -9.10251691	      6.32025838	     -7.14214737	      2.28732375
      2.81000000	    -11.17375593	      6.48890244	     -2.04976988	     -2.28162596	     -0.02505809	     -0.27920560	     21.64449473	    -14.21134701	     -7.78053706	    -63.15858925	    -20.29019339	    -17.17238584	     13.01812426	     25.40350224	      7.59713319	     -6.84805872	    -21.84726129	      1.27989931	    -14.87979830	     -9.07505213	      6.19720840	     -6.90141119	      2.06543571
      2.81500000	    -11.09191879	      6.30672227	     -1.92069923	     -2.27476319	     -0.02376781	     -0.28018083	     22.38460754	    -13.97434156	     -7.80868140	    -63.34508767	    -19.43430916	    -17.02904799	     13.56675218	     24.65039872	      7.61327656	     -6.47619701	    -21.48104609	      1.47759940	    -14.95359603	     -9.15526833	      6.06848608	     -6.70283142	      1.83867535
      2.82000000	    -10.98069528	      6.10486963	     -1.81291384	     -2.26793497	     -0.02244203	     -0.28116377	     23.06352121	    -13.70903976	     -7.83675337	    -63.39693826	    -18.72589689	    -16.92057510	     14.81353102	     23.86170512	      7.60882519	     -6.11754231	    -21.10229061	      1.68850644	    -15.12492357	     -9.65446339	      5.90936853	     -6.47432018	      1.64134928
      2.82500000	    -10.94685431	      5.80193733	     -1.66451718	     -2.26122529	     -0.02122835	     -0.28207187	     23.79826170	    -13.31573451	     -7.94310789	    -63.38748103	    -17.96107383	    -16.80464190	     15.11198097	     23.19514317	      7.47009422	     -5.78471897	    -20.79850350	      1.97958026	    -15.07246150	     -9.66361474	      5.80661333	     -6.15421427	      1.36652783
      2.83000000	    -10.86125177	      5.58788117	     -1.46097847	     -2.25442131	     -0.02001022	     -0.28308241	     24.42955871	    -13.06945220	     -8.10760524	    -63.29167431	    -17.04291873	    -16.50977874	     15.67037635	     22.43604473	      7.45536034	     -5.39933035	    -20.42104168	      2.18946841	    -15.08406871	     -9.82393932	      5.66663830	     -5.93419498	      1.07085185
      2.83500000	    -10.78070237	      5.33730275	     -1.28693369	     -2.24772821	     -0.01877218	     -0.28412696	     25.03581232	    -12.75448186	     -8.21341454	    -62.99963209	    -16.61519141	    -16.51937980	     18.23562802	     21.69016754	      7.39817361	     -4.98836234	    -20.07117289	      2.64895499	    -15.01543895	    -11.14450672	      5.51827734	     -5.65744723	      0.79327415
      2.84000000	    -10.74447085	      5.06266447	     -1.10281374	     -2.24105441	     -0.01764596	     -0.28502371	     25.68465780	    -12.39599077	     -8.37349266	    -62.72491148	    -15.72774571	    -16.25762483	     18.51064737	     20.99971013	      7.27247094	     -4.71207672	    -19.69802768	      2.85843831	    -14.95320927	    -11.14890901	      5.41992664	     -5.37374812	      0.49378768
